# File created by Blade
# Date/Time:  Tue Sep 30 19:36:50 2014
#---------------------------------------------------------
:version 1.10
:name HOM
:units
  mass 1.0
  length 1.000000
  angle deg
:documentation
     Acclaim Skeleton File
:root
   axis xyz
   order TX TY TZ RX RY RZ
   position 0.000000 0.000000 0.000000
   orientation 0 0 0
:bonedata
   begin
      id 1
      name Spine_dum
      direction 0.000000 1.000000 0.000000
      length 3.241213
      axis 0.0 0.0 0.0 xyz
   end
   begin
      id 2
      name LeftUpLeg_dum
      direction 1.000000 0.000000 0.000000
      length 3.434019
      axis 0.0 0.0 0.0 xyz
   end
   begin
      id 3
      name RightUpLeg_dum
      direction -1.000000 0.000000 0.000000
      length 3.434019
      axis 0.0 0.0 0.0 xyz
   end
   begin
      id 4
      name Spine
      direction 0.000000 1.000000 0.000000
      length 0.000000
      axis 0.0 0.0 0.0 xyz
      dof rx ry rz
   end
   begin
      id 5
      name Spine_dum1
      direction 0.000000 1.000000 0.000000
      length 18.382958
      axis 0.0 0.0 0.0 xyz
   end
   begin
      id 6
      name Spine_dum2
      direction 0.000000 1.000000 0.000000
      length 12.828261
      axis 0.0 0.0 0.0 xyz
   end
   begin
      id 7
      name Spine_dum3
      direction 0.000000 1.000000 0.000000
      length 12.828261
      axis 0.0 0.0 0.0 xyz
   end
   begin
      id 8
      name Head
      direction 0.000000 1.000000 0.000000
      length 4.527550
      axis 0.0 0.0 0.0 xyz
      dof rx ry rz
   end
   begin
      id 9
      name LeftShoulder
      direction 1.000000 0.000000 0.000000
      length 7.748055
      axis 0.0 0.0 -90.0 xyz
      dof rx ry rz
   end
   begin
      id 10
      name LeftArm
      direction 1.000000 0.000000 0.000000
      length 10.635614
      axis 0.0 0.0 -90.0 xyz
      dof rx ry rz
   end
   begin
      id 11
      name LeftForeArm
      direction 1.000000 0.000000 0.000000
      length 8.346755
      axis 0.0 0.0 -90.0 xyz
      dof ry rz rx
   end
   begin
      id 12
      name LeftHand
      direction 0.000000 0.000000 0.000000
      length 0.000000
      axis 0.0 0.0 -90.0 xyz
      dof rx ry rz
   end
   begin
      id 13
      name LeftHand_dum1
      direction 0.000000 0.000000 0.000000
      length 0.000000
      axis 0.0 0.0 -90.0 xyz
   end
   begin
      id 14
      name LeftHand_dum2
      direction 1.000000 0.000000 0.000000
      length 3.937000
      axis 0.0 0.0 -90.0 xyz
   end
   begin
      id 15
      name LeftHandThumb1
      direction 0.000000 0.000000 1.000000
      length 3.937000
      axis 0.0 0.0 -90.0 xyz
      dof rx rz ry
   end
   begin
      id 16
      name RightShoulder
      direction -1.000000 0.000000 0.000000
      length 7.748055
      axis 0.0 0.0 90.0 xyz
      dof rx ry rz
   end
   begin
      id 17
      name RightArm
      direction -1.000000 0.000000 0.000000
      length 10.635614
      axis 0.0 0.0 90.0 xyz
      dof rx ry rz
   end
   begin
      id 18
      name RightForeArm
      direction -1.000000 0.000000 0.000000
      length 8.346755
      axis 0.0 0.0 90.0 xyz
      dof ry rz rx
   end
   begin
      id 19
      name RightHand
      direction 0.000000 0.000000 0.000000
      length 0.000000
      axis 0.0 0.0 90.0 xyz
      dof rx ry rz
   end
   begin
      id 20
      name RightHand_dum1
      direction 0.000000 0.000000 0.000000
      length 0.000000
      axis 0.0 0.0 90.0 xyz
   end
   begin
      id 21
      name RightHand_dum2
      direction -1.000000 0.000000 0.000000
      length 3.937000
      axis 0.0 0.0 90.0 xyz
   end
   begin
      id 22
      name RightHandThumb1
      direction 0.000000 0.000000 1.000000
      length 3.937000
      axis 0.0 0.0 90.0 xyz
      dof rx rz ry
   end
   begin
      id 23
      name LeftUpLeg
      direction 0.000000 -1.000000 0.000000
      length 15.713025
      axis 0.0 0.0 0.0 xyz
      dof rx ry rz
   end
   begin
      id 24
      name LeftLeg
      direction 0.000000 -1.000000 0.000000
      length 14.435119
      axis 0.0 0.0 0.0 xyz
      dof rx ry rz
   end
   begin
      id 25
      name LeftFoot
      direction 0.000000 -0.258819 0.965926
      length 4.938895
      axis 15.0 0.0 0.0 xyz
      dof rx ry rz
   end
   begin
      id 26
      name LeftToeBase
      direction 0.000000 0.000000 1.000000
      length 2.952750
      axis 0.0 0.0 0.0 xyz
      dof rx ry rz
   end
   begin
      id 27
      name RightUpLeg
      direction 0.000000 -1.000000 0.000000
      length 15.713025
      axis 0.0 0.0 0.0 xyz
      dof rx ry rz
   end
   begin
      id 28
      name RightLeg
      direction 0.000000 -1.000000 0.000000
      length 14.435119
      axis 0.0 0.0 0.0 xyz
      dof rx ry rz
   end
   begin
      id 29
      name RightFoot
      direction 0.000000 -0.258819 0.965926
      length 4.938895
      axis 15.0 0.0 0.0 xyz
      dof rx ry rz
   end
   begin
      id 30
      name RightToeBase
      direction 0.000000 0.000000 1.000000
      length 2.952750
      axis 0.0 0.0 0.0 xyz
      dof rx ry rz
   end
:hierarchy
   begin
      root Spine_dum LeftUpLeg_dum RightUpLeg_dum
      Spine_dum Spine
      LeftUpLeg_dum LeftUpLeg
      RightUpLeg_dum RightUpLeg
      Spine Spine_dum1 Spine_dum2 Spine_dum3
      Spine_dum1 Head
      Spine_dum2 LeftShoulder
      Spine_dum3 RightShoulder
      LeftShoulder LeftArm
      LeftArm LeftForeArm
      LeftForeArm LeftHand
      LeftHand LeftHand_dum1 LeftHand_dum2
      LeftHand_dum1 LeftHandThumb1
      RightShoulder RightArm
      RightArm RightForeArm
      RightForeArm RightHand
      RightHand RightHand_dum1 RightHand_dum2
      RightHand_dum1 RightHandThumb1
      LeftUpLeg LeftLeg
      LeftLeg LeftFoot
      LeftFoot LeftToeBase
      RightUpLeg RightLeg
      RightLeg RightFoot
      RightFoot RightToeBase
   end

# File created by Blade
# Date/Time:  Tue Sep 23 19:06:47 2014
# Frame Rate: 120.000 fps
#------------------------------------------------------
:FULLY-SPECIFIED
:DEGREES
105
root 0.201956 32.391130 -4.947955 28.609532 -1.948375 -0.310642
Spine -30.232257 -2.123521 -1.601962
Head 1.756609 -2.327013 1.299079
LeftShoulder -17.016422 43.907736 22.186396
LeftArm 56.264518 -25.806490 -61.696969
LeftForeArm 89.689491 -0.000000 -6.545547
LeftHand -5.447723 -0.000000 58.615422
LeftHandThumb1 -26.253704 0.000000 33.147579
RightShoulder -10.091379 -39.695588 -18.336231
RightArm 63.573313 11.392927 70.527232
RightForeArm 28.040509 -0.000000 8.970078
RightHand 13.272244 -0.000000 -3.824095
RightHandThumb1 -24.326973 -0.000000 -32.862282
LeftUpLeg -30.110175 -0.896414 -2.619212
LeftLeg 9.946871 -0.000000 -0.000000
LeftFoot -9.912141 3.470149 1.662125
LeftToeBase 5.225178 -0.000000 -0.000000
RightUpLeg -40.212005 -6.990684 0.409274
RightLeg 25.921014 -0.000000 -0.000000
RightFoot -9.497198 3.756751 5.688159
RightToeBase 4.718962 -0.000000 -0.000000
106
root 0.260202 32.385188 -5.021622 28.553272 -2.551782 -0.436341
Spine -29.899538 -1.780811 -1.809597
Head 1.367094 -2.229681 1.629108
LeftShoulder -16.983124 43.951499 22.198524
LeftArm 56.285655 -25.613705 -62.145329
LeftForeArm 89.796655 -0.000000 -6.426618
LeftHand -5.625133 -0.000000 58.686678
LeftHandThumb1 -26.253704 0.000000 33.147579
RightShoulder -9.746611 -39.524251 -18.126377
RightArm 63.872366 11.067184 71.383123
RightForeArm 27.310913 -0.000000 9.966442
RightHand 13.439057 -0.000000 -3.982767
RightHandThumb1 -24.326973 -0.000000 -32.862282
LeftUpLeg -30.286987 -0.785593 -2.681544
LeftLeg 10.243362 -0.000000 -0.000000
LeftFoot -10.017236 3.900872 1.674946
LeftToeBase 5.206380 -0.000000 -0.000000
RightUpLeg -41.639019 -7.181069 0.461778
RightLeg 28.204759 -0.000000 -0.000000
RightFoot -8.455197 4.824987 5.731760
RightToeBase 3.448310 -0.000000 -0.000000
107
root 0.324257 32.379320 -5.099012 28.483818 -3.150414 -0.553235
Spine -29.535246 -1.448636 -1.989012
Head 0.956818 -2.133401 1.894048
LeftShoulder -17.030607 44.028047 22.123713
LeftArm 56.371328 -25.413291 -62.593779
LeftForeArm 89.654313 -0.000000 -6.304350
LeftHand -5.599649 -0.000000 58.688230
LeftHandThumb1 -26.253704 0.000000 33.147579
RightShoulder -9.356684 -39.382969 -17.972442
RightArm 64.176076 10.662846 72.152305
RightForeArm 27.000450 -0.000000 11.050602
RightHand 13.429503 -0.000000 -4.404618
RightHandThumb1 -24.326973 -0.000000 -32.862282
LeftUpLeg -30.459493 -0.713197 -2.747118
LeftLeg 10.543538 -0.000000 -0.000000
LeftFoot -10.181744 4.339088 1.538183
LeftToeBase 5.480838 -0.000000 -0.000000
RightUpLeg -43.170970 -7.476136 0.541745
RightLeg 30.622796 -0.000000 -0.000000
RightFoot -7.137880 5.999502 6.044351
RightToeBase 1.913792 -0.000000 -0.000000
108
root 0.390431 32.374314 -5.179116 28.467543 -3.773298 -0.685667
Spine -29.216796 -1.077150 -2.159366
Head 0.516267 -1.972329 2.150518
LeftShoulder -17.024232 44.057670 22.093787
LeftArm 56.376783 -25.224355 -63.058051
LeftForeArm 89.584413 -0.000000 -6.130517
LeftHand -5.629640 -0.000000 58.818036
LeftHandThumb1 -26.253704 0.000000 33.147579
RightShoulder -8.981511 -39.284800 -17.822426
RightArm 64.511761 10.226965 72.895998
RightForeArm 26.849917 -0.000000 12.109208
RightHand 13.470638 -0.000000 -4.691585
RightHandThumb1 -24.326973 -0.000000 -32.862282
LeftUpLeg -30.678233 -0.619787 -2.811418
LeftLeg 10.832855 -0.000000 -0.000000
LeftFoot -10.205527 4.828581 1.698781
LeftToeBase 5.285520 -0.000000 -0.000000
RightUpLeg -44.837905 -7.787167 0.647005
RightLeg 33.081102 -0.000000 -0.000000
RightFoot -5.479833 7.173023 6.419696
RightToeBase 0.264088 -0.000000 -0.000000
